<?xml version="1.0" encoding="UTF-8"?>
<svg width="24px" height="34px" viewBox="0 0 24 34" version="1.1" xmlns="http://www.w3.org/2000/svg" xmlns:xlink="http://www.w3.org/1999/xlink">
    <!-- Generator: Sketch 50 (54983) - http://www.bohemiancoding.com/sketch -->
    <title>ico_lokasjon</title>
    <desc>Created with Sketch.</desc>
    <defs></defs>
    <g id="Page-1" stroke="none" stroke-width="1" fill="none" fill-rule="evenodd">
        <g id="FrontpageV6" transform="translate(-458.000000, -4674.000000)" fill="#30343A" fill-rule="nonzero">
            <g id="Group-17" transform="translate(0.000000, 3614.000000)">
                <g id="Group-14" transform="translate(408.000000, 946.000000)">
                    <g id="Group-12" transform="translate(0.000000, 101.000000)">
                        <g id="Group-9" transform="translate(32.000000, 0.000000)">
                            <g id="ic_place_black_24px" transform="translate(18.000000, 13.000000)">
                                <path d="M12,0.333333333 C5.55,0.333333333 0.333333333,5.55 0.333333333,12 C0.333333333,20.75 12,33.6666667 12,33.6666667 C12,33.6666667 23.6666667,20.75 23.6666667,12 C23.6666667,5.55 18.45,0.333333333 12,0.333333333 Z M12,16.1666667 C9.7,16.1666667 7.83333333,14.3 7.83333333,12 C7.83333333,9.7 9.7,7.83333333 12,7.83333333 C14.3,7.83333333 16.1666667,9.7 16.1666667,12 C16.1666667,14.3 14.3,16.1666667 12,16.1666667 Z" id="ico_lokasjon"></path>
                            </g>
                        </g>
                    </g>
                </g>
            </g>
        </g>
    </g>
</svg>